<svg xmlns="http://www.w3.org/2000/svg" viewBox="0 0 116.97 101.86"><defs><style>.cls-1{fill:#231f20;}</style></defs><g id="Calque_2" data-name="Calque 2"><g id="Calque_1-2" data-name="Calque 1"><g id="Calque_2-2" data-name="Calque 2"><g id="Layer_1" data-name="Layer 1"><path class="cls-1" d="M80.07,58.19l21.82,43.66h14.55c-1.24-2.47-21.06-42.13-22.28-44.59"/><path class="cls-1" d="M10.52,50.92C4.23,56.44-.22,64.31,0,72.74c.43,15.63,13,29.35,29.11,29.11H87.33L80.05,87.31H29.11c-8.18.22-14.14-6.94-14.55-14.55A13.55,13.55,0,0,1,27.09,58.28c.51-.05,1-.07,1-.07H87.3"/><path class="cls-1" d="M87.33,0H29.12A29.24,29.24,0,0,0,0,29.09a29.24,29.24,0,0,0,29.11,29.1H87.33A29.1,29.1,0,1,0,88.41,0Zm0,43.64H29.14a14.55,14.55,0,0,1,0-29.1H87.35a14.55,14.55,0,1,1,0,29.1Z"/></g></g></g></g></svg>