<svg xmlns="http://www.w3.org/2000/svg" viewBox="0 0 195.98 178.26"><defs><style>.cls-1{fill:#000000;}</style></defs><g id="Calque_2" data-name="Calque 2"><g id="Layer_1" data-name="Layer 1"><path class="cls-1" d="M10.33,127.54a9.13,9.13,0,0,1,3.76.77A9.26,9.26,0,0,1,19,133.54a10.74,10.74,0,0,1,.69,3.88,11.28,11.28,0,0,1-.62,3.71,8.88,8.88,0,0,1-1.87,3.13,9.22,9.22,0,0,1-3.11,2.16,10.63,10.63,0,0,1-4.29.81,10.65,10.65,0,0,1-4.21-.77,9.06,9.06,0,0,1-3.07-2.1,8.67,8.67,0,0,1-1.89-3.13A11.55,11.55,0,0,1,0,137.39V120H4.63v10A7.51,7.51,0,0,1,7,128.2a7.56,7.56,0,0,1,3.28-.66Zm4.75,9.84a7.89,7.89,0,0,0-.29-2.16,4.66,4.66,0,0,0-.93-1.76,4.36,4.36,0,0,0-1.64-1.18,6.3,6.3,0,0,0-2.43-.42A5.14,5.14,0,0,0,6,133.19a7.09,7.09,0,0,0,0,8.38,5.16,5.16,0,0,0,3.76,1.33,6.3,6.3,0,0,0,2.43-.42,4.25,4.25,0,0,0,1.64-1.18,4.87,4.87,0,0,0,.93-1.76,7.52,7.52,0,0,0,.29-2.16Z"/><path class="cls-1" d="M22.53,122.56a2.92,2.92,0,0,1,.79-2.08,2.82,2.82,0,0,1,2.18-.85,2.72,2.72,0,0,1,2.16.87,3,3,0,0,1,.77,2.07,3.11,3.11,0,0,1-.77,2.1,2.74,2.74,0,0,1-2.16.87,2.81,2.81,0,0,1-2.18-.87,3,3,0,0,1-.79-2.1ZM27.81,147H23.18v-19.3h4.63Z"/><path class="cls-1" d="M40.51,135.37q1.43.27,2.76.6a9,9,0,0,1,2.37.93,4.36,4.36,0,0,1,2.28,4.15,5.26,5.26,0,0,1-2.6,4.73,9.16,9.16,0,0,1-2.84,1.12,15.56,15.56,0,0,1-3.51.37c-.52,0-1.09,0-1.72-.06s-1.28-.1-2-.17-1.33-.17-2-.27-1.24-.22-1.78-.35v-4.36a11.41,11.41,0,0,0,1.6.33c.63.09,1.29.17,2,.23s1.4.12,2.1.15,1.36.06,1.95.06a10.29,10.29,0,0,0,3.3-.37,1.24,1.24,0,0,0,1-1.18.76.76,0,0,0-.17-.48,1.87,1.87,0,0,0-.69-.42,9.64,9.64,0,0,0-1.49-.42c-.64-.14-1.49-.32-2.55-.52l-1.89-.39a7.7,7.7,0,0,1-2.26-.85,6.15,6.15,0,0,1-1.91-1.7,4.73,4.73,0,0,1-.81-2.9,5.55,5.55,0,0,1,.62-2.68A5.27,5.27,0,0,1,34,129a8,8,0,0,1,2.61-1.12,14.07,14.07,0,0,1,3.28-.37c.46,0,1,0,1.6.06s1.22.1,1.83.17,1.24.17,1.85.27,1.18.22,1.7.35v4.36a12.63,12.63,0,0,0-1.43-.29c-.59-.09-1.22-.17-1.87-.25s-1.33-.14-2-.17-1.29-.06-1.83-.06a7.16,7.16,0,0,0-2.84.39,1.19,1.19,0,0,0-.79,1.08,1,1,0,0,0,.21.64,1.85,1.85,0,0,0,.71.46,7.47,7.47,0,0,0,1.35.4c.57.13,1.26.27,2.08.42Z"/><path class="cls-1" d="M64.56,147H59.93v-9.61a11.22,11.22,0,0,1,.66-3.86,8.74,8.74,0,0,1,5.06-5.25,11.07,11.07,0,0,1,4.25-.77,6.07,6.07,0,0,1,.85.06l.85.13v4.48l-.73-.14a4.32,4.32,0,0,0-.73-.06,7.16,7.16,0,0,0-2.64.42,4.55,4.55,0,0,0-1.72,1.14,4,4,0,0,0-.93,1.7,8,8,0,0,0-.27,2.1V147Z"/><path class="cls-1" d="M104.94,147.22a7.74,7.74,0,0,1-3.28-.64,7.21,7.21,0,0,1-2.39-1.76v9.92H94.64V137.37a11.3,11.3,0,0,1,.64-3.84,8.67,8.67,0,0,1,1.89-3.13,8.92,8.92,0,0,1,3.07-2.1,11.83,11.83,0,0,1,8.5,0,9.32,9.32,0,0,1,3.11,2.16,8.65,8.65,0,0,1,1.87,3.13,11.24,11.24,0,0,1,.62,3.71,10.53,10.53,0,0,1-.7,3.88,9.41,9.41,0,0,1-2,3.13,9.1,9.1,0,0,1-6.73,2.87Zm4.75-9.84a7.89,7.89,0,0,0-.29-2.16,4.66,4.66,0,0,0-.93-1.76,4.33,4.33,0,0,0-1.64-1.18,6.3,6.3,0,0,0-2.43-.42,5.14,5.14,0,0,0-3.76,1.33,7.09,7.09,0,0,0,0,8.38,5.16,5.16,0,0,0,3.76,1.33,6.3,6.3,0,0,0,2.43-.42,4.25,4.25,0,0,0,1.64-1.18,4.87,4.87,0,0,0,.93-1.76,7.52,7.52,0,0,0,.29-2.16Z"/><path class="cls-1" d="M147.64,142.9a6.51,6.51,0,0,0,1-.06l.77-.13V147l-.83.13a8,8,0,0,1-1.06.06,10.11,10.11,0,0,1-4-.77,9.09,9.09,0,0,1-3-2.1,9.2,9.2,0,0,1-1.93-3.13,10.85,10.85,0,0,1-.68-3.84V123.1h4.63v5.29h6v4.32h-6v4.67a6.15,6.15,0,0,0,1.25,4,4.75,4.75,0,0,0,3.92,1.54Z"/><path class="cls-1" d="M151.77,122.56a2.92,2.92,0,0,1,.79-2.08,2.83,2.83,0,0,1,2.18-.85,2.74,2.74,0,0,1,2.16.87,3,3,0,0,1,.77,2.07,3.11,3.11,0,0,1-.77,2.1,2.75,2.75,0,0,1-2.16.87,2.81,2.81,0,0,1-2.18-.87,3,3,0,0,1-.79-2.1ZM157.05,147h-4.63v-19.3h4.63Z"/><path class="cls-1" d="M171.18,142.9a6.51,6.51,0,0,0,1-.06l.77-.13V147l-.83.13a8,8,0,0,1-1.06.06,10.11,10.11,0,0,1-4-.77,9.09,9.09,0,0,1-3-2.1,9.2,9.2,0,0,1-1.93-3.13,10.85,10.85,0,0,1-.68-3.84V123.1H166v5.29h6v4.32h-6v4.67a6.15,6.15,0,0,0,1.25,4,4.75,4.75,0,0,0,3.92,1.54Z"/><path class="cls-1" d="M174.73,137.34a10.88,10.88,0,0,1,.66-3.8,8.78,8.78,0,0,1,5.06-5.23,11.86,11.86,0,0,1,8.19-.08,8.59,8.59,0,0,1,3,2,9.09,9.09,0,0,1,2,3.11,12.17,12.17,0,0,1,.79,4.07c0,.49,0,1.09,0,1.8s0,1.49.12,2.33a23.45,23.45,0,0,0,.42,2.68,14,14,0,0,0,1,2.84h-4.63a13.41,13.41,0,0,1-1-3,7.36,7.36,0,0,1-2.55,2.32,7.56,7.56,0,0,1-3.71.85,9.29,9.29,0,0,1-3.78-.77,8.94,8.94,0,0,1-3-2.1,9.69,9.69,0,0,1-1.93-3.13,10.74,10.74,0,0,1-.69-3.88Zm9.92-5.48a6.3,6.3,0,0,0-2.43.42,4.25,4.25,0,0,0-1.64,1.18,4.87,4.87,0,0,0-.93,1.76,8.19,8.19,0,0,0,0,4.32,4.66,4.66,0,0,0,.93,1.76,4.36,4.36,0,0,0,1.64,1.18,6.3,6.3,0,0,0,2.43.42,5.14,5.14,0,0,0,3.76-1.33,5.63,5.63,0,0,0,1.37-4.19,6.82,6.82,0,0,0-1.31-4,4.62,4.62,0,0,0-3.82-1.49Z"/><path class="cls-1" d="M86.14,139.81a8.27,8.27,0,0,0,2.59-1.29,5.8,5.8,0,0,0,1.68-2,5.64,5.64,0,0,0,.6-2.61,5.55,5.55,0,0,0-.6-2.59,6.13,6.13,0,0,0-1.7-2A8,8,0,0,0,86.1,128a11.07,11.07,0,0,0-3.28-.46,10.8,10.8,0,0,0-4.19.77,9,9,0,0,0-3.09,2.12,9.18,9.18,0,0,0-1.91,3.15,11.17,11.17,0,0,0-.66,3.88,10.9,10.9,0,0,0,.64,3.8,8.49,8.49,0,0,0,1.93,3.13,9,9,0,0,0,3.24,2.1,12.36,12.36,0,0,0,4.54.78H89.5v-4.48h-6c-2.15,0-3.74-.48-4.52-1.37a4.3,4.3,0,0,1-1.1-1.76,42,42,0,0,0,4.92.46,11.2,11.2,0,0,0,3.3-.31Zm-8.11-6c0-1,1.86-1.89,4.15-1.89s4.15.85,4.15,1.89-1.86,1.89-4.15,1.89S78,134.85,78,133.81Z"/><path class="cls-1" d="M129.84,139.81a8.27,8.27,0,0,0,2.59-1.29,5.8,5.8,0,0,0,1.68-2,5.64,5.64,0,0,0,.6-2.61,5.55,5.55,0,0,0-.6-2.59,6.13,6.13,0,0,0-1.7-2A8,8,0,0,0,129.8,128a11.07,11.07,0,0,0-3.28-.46,10.8,10.8,0,0,0-4.19.77,9,9,0,0,0-3.09,2.12,9.18,9.18,0,0,0-1.91,3.15,11.17,11.17,0,0,0-.66,3.88,10.9,10.9,0,0,0,.64,3.8,8.49,8.49,0,0,0,1.93,3.13,9,9,0,0,0,3.24,2.1,12.36,12.36,0,0,0,4.54.78h6.18v-4.48h-6c-2.15,0-3.74-.48-4.52-1.37a4.3,4.3,0,0,1-1.1-1.76,42,42,0,0,0,4.92.46,11.2,11.2,0,0,0,3.3-.31Zm-8.11-6c0-1,1.86-1.89,4.15-1.89s4.15.85,4.15,1.89-1.86,1.89-4.15,1.89S121.73,134.85,121.73,133.81Z"/><path class="cls-1" d="M44.19,162.24a4.49,4.49,0,0,1,1.88.39,4.79,4.79,0,0,1,1.49,1.05,4.91,4.91,0,0,1,1,1.56,5.39,5.39,0,0,1,.35,1.94,5.49,5.49,0,0,1-.31,1.85,4.43,4.43,0,0,1-.94,1.56,4.69,4.69,0,0,1-1.55,1.08,5.85,5.85,0,0,1-4.25,0,4.57,4.57,0,0,1-1.54-1.05,4.52,4.52,0,0,1-.95-1.56,5.77,5.77,0,0,1-.32-1.92v-8.69h2.32v5a3.69,3.69,0,0,1,1.2-.89,3.78,3.78,0,0,1,1.64-.33Zm2.38,4.92a4.09,4.09,0,0,0-.14-1.08,2.47,2.47,0,0,0-.46-.88,2.16,2.16,0,0,0-.82-.59,3.14,3.14,0,0,0-1.22-.21,2.54,2.54,0,0,0-1.88.67,3.53,3.53,0,0,0,0,4.19,2.6,2.6,0,0,0,1.88.67,3.17,3.17,0,0,0,1.22-.21,2.16,2.16,0,0,0,.82-.59,2.25,2.25,0,0,0,.46-.88,3.76,3.76,0,0,0,.14-1.08Z"/><path class="cls-1" d="M50.07,167.16a5.53,5.53,0,0,1,.33-1.92,4.33,4.33,0,0,1,1-1.56,4.72,4.72,0,0,1,1.55-1.05,5.74,5.74,0,0,1,4.16,0,4.62,4.62,0,0,1,1.55,1.05,4.56,4.56,0,0,1,1,1.56,5.75,5.75,0,0,1,0,3.84,4.33,4.33,0,0,1-1,1.56,4.72,4.72,0,0,1-1.55,1.05,5.74,5.74,0,0,1-4.16,0,4.62,4.62,0,0,1-1.55-1.05,4.56,4.56,0,0,1-1-1.56A5.53,5.53,0,0,1,50.07,167.16Zm2.31,0a4.09,4.09,0,0,0,.14,1.08,2.47,2.47,0,0,0,.46.88,2.13,2.13,0,0,0,.81.59,3.48,3.48,0,0,0,2.38,0,2.13,2.13,0,0,0,.81-.59,2.25,2.25,0,0,0,.46-.88,3.76,3.76,0,0,0,.14-1.08,4.15,4.15,0,0,0-.14-1.08,2.47,2.47,0,0,0-.46-.88,2.13,2.13,0,0,0-.81-.59,3.48,3.48,0,0,0-2.38,0,2.13,2.13,0,0,0-.81.59,2.25,2.25,0,0,0-.46.88A3.76,3.76,0,0,0,52.38,167.16Z"/><path class="cls-1" d="M65.67,168.26a1.78,1.78,0,0,0-1.54.67,2.79,2.79,0,0,0-.49,1.71V172H61.32v-1.35a4.37,4.37,0,0,1,.46-2,3.81,3.81,0,0,1,1.35-1.47,3.67,3.67,0,0,1-1.35-1.47,4.31,4.31,0,0,1-.46-2v-1.35h2.32v1.35a2.77,2.77,0,0,0,.49,1.71,1.8,1.8,0,0,0,1.54.67,1.78,1.78,0,0,0,1.54-.67,2.79,2.79,0,0,0,.49-1.71v-1.35H70v1.35a4.37,4.37,0,0,1-.46,2,3.74,3.74,0,0,1-1.35,1.47,3.67,3.67,0,0,1,1.35,1.47,4.37,4.37,0,0,1,.46,2V172H67.7v-1.35a2.79,2.79,0,0,0-.49-1.71A1.78,1.78,0,0,0,65.67,168.26Z"/><path class="cls-1" d="M71.85,159.74a1.41,1.41,0,0,1,1.49-1.46,1.37,1.37,0,0,1,1.08.43,1.49,1.49,0,0,1,.39,1,1.54,1.54,0,0,1-.39,1,1.37,1.37,0,0,1-1.08.43,1.39,1.39,0,0,1-1.09-.43A1.53,1.53,0,0,1,71.85,159.74ZM74.5,172H72.18v-9.66H74.5Z"/><path class="cls-1" d="M81.55,164.4a2.15,2.15,0,0,0-1.82.77,3.2,3.2,0,0,0-.59,2V172H76.82v-4.83a5.77,5.77,0,0,1,.32-1.92,4.38,4.38,0,0,1,.93-1.56,4.46,4.46,0,0,1,1.49-1.05,5.32,5.32,0,0,1,4,0,4.46,4.46,0,0,1,1.49,1.05,4.63,4.63,0,0,1,.93,1.56,5.77,5.77,0,0,1,.32,1.92V172H84v-4.83a3.22,3.22,0,0,0-.59-2,2.16,2.16,0,0,0-1.83-.77Z"/><path class="cls-1" d="M87.57,174.89a3,3,0,0,1,.87-2.25,4.36,4.36,0,0,1,2.51-1V170a4.5,4.5,0,0,1-1.36-.54,4,4,0,0,1-1-.87A3.61,3.61,0,0,1,88,167.5a4,4,0,0,1-.21-1.29,3.85,3.85,0,0,1,.31-1.54,3.71,3.71,0,0,1,.89-1.26,4.26,4.26,0,0,1,1.42-.85,5.45,5.45,0,0,1,1.92-.31,5.85,5.85,0,0,1,1.43.16,5,5,0,0,1,1.18.45,4,4,0,0,1,.82-.34,5.71,5.71,0,0,1,.74-.15,4.88,4.88,0,0,1,.64,0h.83v1.93h-.35a3.89,3.89,0,0,0-.6,0,2.45,2.45,0,0,0-.58.14,3.78,3.78,0,0,1,.42,1.76,3.85,3.85,0,0,1-.24,1.36,3.68,3.68,0,0,1-.7,1.17,3.94,3.94,0,0,1-1.12.88,4.68,4.68,0,0,1-1.52.49v1.45a5,5,0,0,1,2.79,1,2.9,2.9,0,0,1,1,2.34,2.86,2.86,0,0,1-1.24,2.54,7.71,7.71,0,0,1-7,0,2.88,2.88,0,0,1-1.24-2.54Zm2.32,0a1,1,0,0,0,.57.93,6,6,0,0,0,3.68,0,1,1,0,0,0,0-1.86,6,6,0,0,0-3.68,0A1,1,0,0,0,89.89,174.89Zm.19-8.69a1.75,1.75,0,0,0,.52,1.27,3,3,0,0,0,3.4,0,1.74,1.74,0,0,0,.52-1.27,1.71,1.71,0,0,0-.52-1.26,3,3,0,0,0-3.4,0A1.73,1.73,0,0,0,90.08,166.2Z"/><path class="cls-1" d="M107.56,166.16q.72.14,1.38.3a4.68,4.68,0,0,1,1.19.46,2.33,2.33,0,0,1,.83.79,2.37,2.37,0,0,1,.31,1.29,2.74,2.74,0,0,1-.35,1.4,2.87,2.87,0,0,1-1,1,4.39,4.39,0,0,1-1.42.56,8.13,8.13,0,0,1-1.76.18c-.26,0-.54,0-.86,0l-1-.09-1-.13c-.32-.05-.62-.11-.89-.17v-2.18a4.7,4.7,0,0,0,.8.16l1,.12,1,.08,1,0a5.33,5.33,0,0,0,1.65-.18.62.62,0,0,0,.49-.59.36.36,0,0,0-.09-.24.88.88,0,0,0-.35-.21,4.73,4.73,0,0,0-.74-.21l-1.27-.26-1-.19a3.78,3.78,0,0,1-1.13-.42,3.1,3.1,0,0,1-1-.85,2.36,2.36,0,0,1-.41-1.45,2.73,2.73,0,0,1,.31-1.34,2.7,2.7,0,0,1,.86-1,3.94,3.94,0,0,1,1.3-.56,7,7,0,0,1,1.64-.18,7.78,7.78,0,0,1,.8,0l.92.09c.31,0,.62.08.93.14l.85.17v2.18a5.55,5.55,0,0,0-.71-.14l-.94-.13c-.33,0-.66-.07-1-.09l-.92,0a3.58,3.58,0,0,0-1.42.19.61.61,0,0,0-.4.54.5.5,0,0,0,.11.32,1,1,0,0,0,.36.23,3.81,3.81,0,0,0,.68.2c.28.07.63.14,1,.21Z"/><path class="cls-1" d="M117.68,169.92a2.28,2.28,0,0,0,.48,0l.39-.07V172l-.42.07a3.33,3.33,0,0,1-.53,0,4.94,4.94,0,0,1-2-.39,4.52,4.52,0,0,1-2.49-2.61,5.32,5.32,0,0,1-.34-1.92V160h2.32v2.65h3v2.16h-3v2.34a3.06,3.06,0,0,0,.63,2,2.36,2.36,0,0,0,2,.77Z"/><path class="cls-1" d="M124.5,169.92a2.19,2.19,0,0,0,1.83-.77,3.2,3.2,0,0,0,.59-2v-4.83h2.32v4.83a5.77,5.77,0,0,1-.32,1.92,4.38,4.38,0,0,1-.93,1.56,4.46,4.46,0,0,1-1.49,1.05,5.32,5.32,0,0,1-4,0,4.46,4.46,0,0,1-1.49-1.05,4.63,4.63,0,0,1-.93-1.56,5.77,5.77,0,0,1-.32-1.92v-4.83h2.32v4.83a3.22,3.22,0,0,0,.59,2A2.13,2.13,0,0,0,124.5,169.92Z"/><path class="cls-1" d="M138.39,158.47h2.32v8.69a5.77,5.77,0,0,1-.32,1.92,4.28,4.28,0,0,1-.95,1.56,4.52,4.52,0,0,1-1.55,1.05,5.82,5.82,0,0,1-4.24,0,4.49,4.49,0,0,1-1.55-1.08,4.43,4.43,0,0,1-.94-1.56,5.49,5.49,0,0,1-.31-1.85,5.35,5.35,0,0,1,.35-1.94,4.62,4.62,0,0,1,1-1.56,4.6,4.6,0,0,1,3.38-1.44,3.8,3.8,0,0,1,1.63.33,3.84,3.84,0,0,1,1.21.89v-5Zm-5.22,8.69a3.71,3.71,0,0,0,.15,1.08,2.47,2.47,0,0,0,.46.88,2.16,2.16,0,0,0,.82.59,3.14,3.14,0,0,0,1.22.21,2.54,2.54,0,0,0,1.88-.67,2.78,2.78,0,0,0,.69-2.09,2.83,2.83,0,0,0-.69-2.1,2.62,2.62,0,0,0-1.88-.67,3.17,3.17,0,0,0-1.22.21,2.16,2.16,0,0,0-.82.59,2.25,2.25,0,0,0-.46.88,3.76,3.76,0,0,0-.15,1.08Z"/><path class="cls-1" d="M142.69,159.74a1.44,1.44,0,0,1,.4-1,1.42,1.42,0,0,1,1.09-.42,1.37,1.37,0,0,1,1.08.43,1.49,1.49,0,0,1,.39,1,1.54,1.54,0,0,1-.39,1,1.37,1.37,0,0,1-1.08.43,1.39,1.39,0,0,1-1.09-.43A1.53,1.53,0,0,1,142.69,159.74ZM145.34,172H143v-9.66h2.32Z"/><path class="cls-1" d="M147.1,167.16a5.53,5.53,0,0,1,.33-1.92,4.33,4.33,0,0,1,1-1.56,4.62,4.62,0,0,1,1.55-1.05,5.74,5.74,0,0,1,4.16,0,4.62,4.62,0,0,1,1.55,1.05,4.56,4.56,0,0,1,1,1.56,5.75,5.75,0,0,1,0,3.84,4.33,4.33,0,0,1-1,1.56,4.72,4.72,0,0,1-1.55,1.05,5.74,5.74,0,0,1-4.16,0,4.62,4.62,0,0,1-1.55-1.05,4.42,4.42,0,0,1-1-1.56A5.53,5.53,0,0,1,147.1,167.16Zm2.31,0a4.09,4.09,0,0,0,.14,1.08,2.47,2.47,0,0,0,.46.88,2.13,2.13,0,0,0,.81.59,3.48,3.48,0,0,0,2.38,0,2.13,2.13,0,0,0,.81-.59,2.25,2.25,0,0,0,.46-.88,4,4,0,0,0,0-2.16,2.47,2.47,0,0,0-.46-.88,2.13,2.13,0,0,0-.81-.59,3.48,3.48,0,0,0-2.38,0,2.13,2.13,0,0,0-.81.59,2.25,2.25,0,0,0-.46.88A3.76,3.76,0,0,0,149.41,167.16Z"/><path class="cls-1" d="M119.84,58.19l21.82,43.66h14.55c-1.24-2.47-21.06-42.14-22.28-44.59"/><path class="cls-1" d="M50.29,50.91C44,56.44,39.55,64.31,39.78,72.74c.43,15.62,13,29.34,29.11,29.11H127.1L119.82,87.3H68.88c-8.18.22-14.14-6.94-14.55-14.55A13.55,13.55,0,0,1,66.86,58.27c.51-.05,1-.07,1-.07.54,0,.94,0,1,0,.73,0,23.13,0,58.21,0"/><path class="cls-1" d="M127.1,0H68.89A29.25,29.25,0,0,0,39.78,29.08,29.25,29.25,0,0,0,68.89,58.19H127.1A29.1,29.1,0,1,0,127.1,0Zm0,43.64H68.91a14.55,14.55,0,1,1,0-29.1h58.21a14.55,14.55,0,1,1,0,29.1Z"/></g></g></svg>