<svg xmlns="http://www.w3.org/2000/svg" viewBox="0 0 232.76 34.02"><defs><style>.cls-1{fill:#231f20;}</style></defs><g id="Calque_2" data-name="Calque 2"><g id="Layer_1" data-name="Layer 1"><path class="cls-1" d="M52.93,7.66a8.8,8.8,0,0,1,3.65.75,9,9,0,0,1,2.88,2,9.24,9.24,0,0,1,1.89,3A10.29,10.29,0,0,1,62,17.24a10.82,10.82,0,0,1-.6,3.59,8.47,8.47,0,0,1-1.81,3,8.87,8.87,0,0,1-3,2.09,11.38,11.38,0,0,1-8.23,0,8.74,8.74,0,0,1-3-2,8.49,8.49,0,0,1-1.83-3A11.08,11.08,0,0,1,43,17.2V.37h4.49V10A7.2,7.2,0,0,1,49.76,8.3a7.45,7.45,0,0,1,3.18-.64Zm4.6,9.54a7.34,7.34,0,0,0-.28-2.09,4.55,4.55,0,0,0-.9-1.7,4.06,4.06,0,0,0-1.59-1.14,6.12,6.12,0,0,0-2.36-.41,5,5,0,0,0-3.65,1.29,5.42,5.42,0,0,0-1.33,4.06,5.42,5.42,0,0,0,1.33,4.06,5,5,0,0,0,3.65,1.29,6.16,6.16,0,0,0,2.36-.41A4.06,4.06,0,0,0,56.35,21a4.63,4.63,0,0,0,.9-1.7,7.43,7.43,0,0,0,.28-2.09Z"/><path class="cls-1" d="M64.75,2.84a2.86,2.86,0,0,1,.77-2A2.74,2.74,0,0,1,67.63,0a2.65,2.65,0,0,1,2.09.84,3,3,0,0,1,.75,2,3,3,0,0,1-.75,2,2.66,2.66,0,0,1-2.09.84,2.72,2.72,0,0,1-2.11-.84A2.93,2.93,0,0,1,64.75,2.84Zm5.12,23.71H65.38V7.85h4.49Z"/><path class="cls-1" d="M82.17,15.26c.92.17,1.81.37,2.67.58a8.62,8.62,0,0,1,2.3.9,4.64,4.64,0,0,1,1.61,1.53,4.61,4.61,0,0,1,.6,2.49,5.26,5.26,0,0,1-.67,2.71,5.51,5.51,0,0,1-1.85,1.87,8.59,8.59,0,0,1-2.75,1.08,15.22,15.22,0,0,1-3.4.36c-.5,0-1.05,0-1.66-.06s-1.24-.09-1.89-.17-1.28-.16-1.91-.26S74,26.08,73.5,26V21.72a12.24,12.24,0,0,0,1.55.32c.61.09,1.25.16,1.93.22s1.35.11,2,.15,1.31.06,1.89.06a10,10,0,0,0,3.2-.36c.64-.24,1-.62,1-1.14a.75.75,0,0,0-.17-.47,1.76,1.76,0,0,0-.67-.41,9.58,9.58,0,0,0-1.44-.41c-.62-.14-1.45-.31-2.47-.51l-1.83-.37A7.39,7.39,0,0,1,76.29,18a5.91,5.91,0,0,1-1.85-1.65,4.58,4.58,0,0,1-.78-2.8,5.37,5.37,0,0,1,.6-2.6A5.11,5.11,0,0,1,75.92,9.1,7.39,7.39,0,0,1,78.44,8a13.23,13.23,0,0,1,3.18-.36c.45,0,1,0,1.55.06s1.18.09,1.78.17,1.2.16,1.79.26,1.15.21,1.65.34v4.23A12.19,12.19,0,0,0,87,12.44c-.57-.09-1.18-.17-1.81-.24s-1.28-.13-1.94-.17S82,12,81.48,12a7.17,7.17,0,0,0-2.75.37A1.16,1.16,0,0,0,78,13.39a.91.91,0,0,0,.21.62,2,2,0,0,0,.69.45,7.26,7.26,0,0,0,1.31.39c.55.13,1.22.26,2,.41Z"/><path class="cls-1" d="M105.47,26.55H101V17.24a10.77,10.77,0,0,1,.64-3.74,8.57,8.57,0,0,1,1.87-3.05,8.8,8.8,0,0,1,3-2,10.61,10.61,0,0,1,4.11-.75,5.66,5.66,0,0,1,.82.06l.82.13v4.34l-.71-.13a4,4,0,0,0-.71-.06,7,7,0,0,0-2.56.41,4.35,4.35,0,0,0-1.66,1.1,4,4,0,0,0-.9,1.65,7.92,7.92,0,0,0-.26,2v9.35Z"/><path class="cls-1" d="M144.58,26.73a7.61,7.61,0,0,1-3.18-.62,7,7,0,0,1-2.32-1.7V34h-4.49V17.19a11.08,11.08,0,0,1,.62-3.72,8.49,8.49,0,0,1,1.83-3,8.74,8.74,0,0,1,3-2,11.38,11.38,0,0,1,8.23,0,8.87,8.87,0,0,1,3,2.09,8.47,8.47,0,0,1,1.81,3,10.82,10.82,0,0,1,.6,3.59,10.29,10.29,0,0,1-.67,3.76,9.24,9.24,0,0,1-1.89,3,9,9,0,0,1-2.88,2,8.76,8.76,0,0,1-3.65.75Zm4.6-9.53a7.34,7.34,0,0,0-.28-2.09,4.55,4.55,0,0,0-.9-1.7,4.16,4.16,0,0,0-1.59-1.14,6.12,6.12,0,0,0-2.36-.41,5,5,0,0,0-3.65,1.29,5.42,5.42,0,0,0-1.33,4.06,5.42,5.42,0,0,0,1.33,4.06,5,5,0,0,0,3.65,1.29,6.16,6.16,0,0,0,2.36-.41A4.06,4.06,0,0,0,148,21a4.63,4.63,0,0,0,.9-1.7,7.43,7.43,0,0,0,.28-2.09Z"/><path class="cls-1" d="M185.93,22.55a6,6,0,0,0,.93-.06l.75-.13v4.19l-.8.13a6.15,6.15,0,0,1-1,.06,9.64,9.64,0,0,1-3.89-.75A8.91,8.91,0,0,1,179,24a9,9,0,0,1-1.87-3,10.4,10.4,0,0,1-.65-3.72V3.36h4.49V8.48h5.79v4.19h-5.79v4.52A5.91,5.91,0,0,0,182.13,21a4.61,4.61,0,0,0,3.8,1.5Z"/><path class="cls-1" d="M189.93,2.84a2.86,2.86,0,0,1,.77-2A2.74,2.74,0,0,1,192.81,0a2.66,2.66,0,0,1,2.09.84,2.91,2.91,0,0,1,.75,2,3,3,0,0,1-.75,2,2.66,2.66,0,0,1-2.09.84,2.72,2.72,0,0,1-2.11-.84A2.93,2.93,0,0,1,189.93,2.84Zm5.13,23.71h-4.49V7.85h4.49Z"/><path class="cls-1" d="M208.74,22.55a6,6,0,0,0,.93-.06l.75-.13v4.19l-.8.13a6.15,6.15,0,0,1-1,.06A9.64,9.64,0,0,1,204.7,26a8.91,8.91,0,0,1-2.94-2,9,9,0,0,1-1.87-3,10.4,10.4,0,0,1-.65-3.72V3.36h4.49V8.48h5.79v4.19h-5.79v4.52A5.91,5.91,0,0,0,204.94,21a4.61,4.61,0,0,0,3.8,1.5Z"/><path class="cls-1" d="M212.18,17.16a10.47,10.47,0,0,1,.64-3.68,8.58,8.58,0,0,1,1.87-3,8.8,8.8,0,0,1,3-2,11.44,11.44,0,0,1,7.93-.08,8.31,8.31,0,0,1,2.94,1.91,8.76,8.76,0,0,1,1.91,3,12,12,0,0,1,.77,3.94c0,.47,0,1,0,1.74s0,1.44.11,2.26a20.19,20.19,0,0,0,.41,2.6,13.72,13.72,0,0,0,.93,2.75h-4.49a12.59,12.59,0,0,1-.93-2.88,7,7,0,0,1-2.47,2.24,7.33,7.33,0,0,1-3.59.82,8.88,8.88,0,0,1-3.66-.75,8.76,8.76,0,0,1-2.88-2,9.36,9.36,0,0,1-1.87-3,10.29,10.29,0,0,1-.67-3.76Zm9.61-5.31a6.16,6.16,0,0,0-2.36.41,4.06,4.06,0,0,0-1.59,1.14,4.63,4.63,0,0,0-.9,1.7,7.94,7.94,0,0,0,0,4.18,4.71,4.71,0,0,0,.9,1.7,4.06,4.06,0,0,0,1.59,1.14,6.12,6.12,0,0,0,2.36.41,5,5,0,0,0,3.65-1.29,5.46,5.46,0,0,0,1.33-4.06,6.6,6.6,0,0,0-1.27-3.91,4.47,4.47,0,0,0-3.7-1.44Z"/><path class="cls-1" d="M126.37,19.56a8.08,8.08,0,0,0,2.51-1.25,5.72,5.72,0,0,0,1.63-1.94,5.43,5.43,0,0,0,.58-2.52,5.36,5.36,0,0,0-.58-2.51,5.65,5.65,0,0,0-1.65-1.94,7.86,7.86,0,0,0-2.52-1.27,10.72,10.72,0,0,0-3.18-.45,10.39,10.39,0,0,0-4.06.75,8.5,8.5,0,0,0-3,2.06,8.86,8.86,0,0,0-1.85,3,11,11,0,0,0-.64,3.76,10.73,10.73,0,0,0,.62,3.68,8.17,8.17,0,0,0,1.87,3,8.81,8.81,0,0,0,3.14,2,11.83,11.83,0,0,0,4.39.76h6V22.47h-5.77c-2.08,0-3.62-.47-4.38-1.32a4.37,4.37,0,0,1-1.07-1.7,41.33,41.33,0,0,0,4.76.44,10.89,10.89,0,0,0,3.2-.3Zm-7.86-5.81c0-1,1.8-1.83,4-1.83s4,.82,4,1.83-1.8,1.83-4,1.83S118.51,14.76,118.51,13.75Z"/><path class="cls-1" d="M168.69,19.56a8.08,8.08,0,0,0,2.51-1.25,5.72,5.72,0,0,0,1.63-1.94,5.43,5.43,0,0,0,.58-2.52,5.36,5.36,0,0,0-.58-2.51,5.65,5.65,0,0,0-1.65-1.94,7.86,7.86,0,0,0-2.52-1.27,10.72,10.72,0,0,0-3.18-.45,10.39,10.39,0,0,0-4.06.75,8.5,8.5,0,0,0-3,2.06,8.86,8.86,0,0,0-1.85,3,11,11,0,0,0-.64,3.76,10.73,10.73,0,0,0,.62,3.68,8.17,8.17,0,0,0,1.87,3,8.81,8.81,0,0,0,3.14,2,11.83,11.83,0,0,0,4.39.76h6V22.47h-5.77c-2.08,0-3.62-.47-4.38-1.32a4.37,4.37,0,0,1-1.07-1.7,41.33,41.33,0,0,0,4.76.44,10.89,10.89,0,0,0,3.2-.3Zm-7.85-5.81c0-1,1.8-1.83,4-1.83s4,.82,4,1.83-1.8,1.83-4,1.83S160.84,14.76,160.84,13.75Z"/><path class="cls-1" d="M21,15.27l5.73,11.46h3.82C30.24,26.08,25,15.67,24.71,15"/><path class="cls-1" d="M2.76,13.36A7.59,7.59,0,0,0,0,19.09a7.74,7.74,0,0,0,7.64,7.64H22.92L21,22.91H7.64a3.9,3.9,0,0,1-3.82-3.82,3.55,3.55,0,0,1,3.29-3.8l.27,0H22.92"/><path class="cls-1" d="M22.92,0H7.64A7.68,7.68,0,0,0,0,7.63a7.68,7.68,0,0,0,7.64,7.64H22.92a7.68,7.68,0,0,0,7.64-7.64A7.67,7.67,0,0,0,22.92,0Zm0,11.45H7.64a3.82,3.82,0,0,1,0-7.64H22.92a3.82,3.82,0,0,1,0,7.64Z"/></g></g></svg>